<?xml version="1.0" encoding="UTF-8" standalone="no"?>
<!DOCTYPE svg PUBLIC "-//W3C//DTD SVG 1.1//EN"
 "http://www.w3.org/Graphics/SVG/1.1/DTD/svg11.dtd">
<!-- Generated by graphviz version 2.43.0 (0)
 -->
<!-- Title: %3 Pages: 1 -->
<svg width="1954pt" height="479pt"
 viewBox="0.00 0.00 1954.00 479.00" xmlns="http://www.w3.org/2000/svg" xmlns:xlink="http://www.w3.org/1999/xlink">
<g id="graph0" class="graph" transform="scale(1 1) rotate(0) translate(4 475)">
<title>%3</title>
<polygon fill="white" stroke="transparent" points="-4,4 -4,-475 1950,-475 1950,4 -4,4"/>
<!-- 1 -->
<g id="node1" class="node">
<title>1</title>
<ellipse fill="none" stroke="black" cx="587" cy="-453" rx="27" ry="18"/>
<text text-anchor="middle" x="587" y="-449.3" font-family="Times,serif" font-size="14.00">1</text>
</g>
<!-- 15 -->
<g id="node2" class="node">
<title>15</title>
<ellipse fill="none" stroke="black" cx="111" cy="-192" rx="27" ry="18"/>
<text text-anchor="middle" x="111" y="-188.3" font-family="Times,serif" font-size="14.00">15</text>
</g>
<!-- 1&#45;&gt;15 -->
<g id="edge1" class="edge">
<title>1&#45;&gt;15</title>
<path fill="none" stroke="black" d="M562.42,-444.97C496.21,-425.63 309.36,-368.29 164,-297 123.48,-277.13 99.84,-282.5 78,-243 72.34,-232.76 78.03,-221.86 86.18,-212.87"/>
<polygon fill="black" stroke="black" points="88.7,-215.3 93.42,-205.81 83.81,-210.29 88.7,-215.3"/>
<text text-anchor="middle" x="247" y="-318.8" font-family="Times,serif" font-size="14.00">700</text>
</g>
<!-- 20 -->
<g id="node12" class="node">
<title>20</title>
<ellipse fill="none" stroke="black" cx="587" cy="-366" rx="27" ry="18"/>
<text text-anchor="middle" x="587" y="-362.3" font-family="Times,serif" font-size="14.00">20</text>
</g>
<!-- 1&#45;&gt;20 -->
<g id="edge8" class="edge">
<title>1&#45;&gt;20</title>
<path fill="none" stroke="black" d="M587,-434.8C587,-423.16 587,-407.55 587,-394.24"/>
<polygon fill="black" stroke="black" points="590.5,-394.18 587,-384.18 583.5,-394.18 590.5,-394.18"/>
<text text-anchor="middle" x="601" y="-405.8" font-family="Times,serif" font-size="14.00">400</text>
</g>
<!-- 24 -->
<g id="node17" class="node">
<title>24</title>
<ellipse fill="none" stroke="black" cx="854" cy="-279" rx="27" ry="18"/>
<text text-anchor="middle" x="854" y="-275.3" font-family="Times,serif" font-size="14.00">24</text>
</g>
<!-- 1&#45;&gt;24 -->
<g id="edge14" class="edge">
<title>1&#45;&gt;24</title>
<path fill="none" stroke="black" d="M613.95,-451.41C660.85,-448.95 757.93,-437.27 815,-384 836.52,-363.92 846.24,-330.82 850.58,-307.36"/>
<polygon fill="black" stroke="black" points="854.06,-307.77 852.22,-297.34 847.15,-306.64 854.06,-307.77"/>
<text text-anchor="middle" x="857.5" y="-362.3" font-family="Times,serif" font-size="14.00">1000</text>
</g>
<!-- 32 -->
<g id="node30" class="node">
<title>32</title>
<ellipse fill="none" stroke="black" cx="310" cy="-105" rx="27" ry="18"/>
<text text-anchor="middle" x="310" y="-101.3" font-family="Times,serif" font-size="14.00">32</text>
</g>
<!-- 1&#45;&gt;32 -->
<g id="edge38" class="edge">
<title>1&#45;&gt;32</title>
<path fill="none" stroke="black" d="M559.87,-450.97C444.42,-446.25 0,-424.34 0,-367 0,-367 0,-367 0,-191 0,-135 190.54,-114.56 272.86,-108.35"/>
<polygon fill="black" stroke="black" points="273.31,-111.82 283.03,-107.61 272.81,-104.84 273.31,-111.82"/>
<text text-anchor="middle" x="14" y="-275.3" font-family="Times,serif" font-size="14.00">800</text>
</g>
<!-- 33 -->
<g id="node31" class="node">
<title>33</title>
<ellipse fill="none" stroke="black" cx="629" cy="-105" rx="27" ry="18"/>
<text text-anchor="middle" x="629" y="-101.3" font-family="Times,serif" font-size="14.00">33</text>
</g>
<!-- 1&#45;&gt;33 -->
<g id="edge39" class="edge">
<title>1&#45;&gt;33</title>
<path fill="none" stroke="black" d="M575.81,-436.47C553.21,-403.03 506.65,-322.29 536,-261 546.1,-239.9 557.54,-240.99 577,-228 590.9,-218.73 600.21,-223.54 610,-210 626.08,-187.76 629.86,-156.02 630.22,-133.46"/>
<polygon fill="black" stroke="black" points="633.72,-133.19 630.16,-123.21 626.72,-133.23 633.72,-133.19"/>
<text text-anchor="middle" x="550" y="-275.3" font-family="Times,serif" font-size="14.00">400</text>
</g>
<!-- 34 -->
<g id="node33" class="node">
<title>34</title>
<ellipse fill="none" stroke="black" cx="1551" cy="-192" rx="27" ry="18"/>
<text text-anchor="middle" x="1551" y="-188.3" font-family="Times,serif" font-size="14.00">34</text>
</g>
<!-- 1&#45;&gt;34 -->
<g id="edge53" class="edge">
<title>1&#45;&gt;34</title>
<path fill="none" stroke="black" d="M614.23,-451.2C758.07,-446.84 1425.98,-424.53 1508,-384 1536.79,-369.78 1544.59,-360.01 1556,-330 1569.73,-293.9 1564.04,-248.52 1558.04,-220.13"/>
<polygon fill="black" stroke="black" points="1561.4,-219.11 1555.76,-210.14 1554.57,-220.66 1561.4,-219.11"/>
<text text-anchor="middle" x="1574" y="-318.8" font-family="Times,serif" font-size="14.00">700</text>
</g>
<!-- 36 -->
<g id="node34" class="node">
<title>36</title>
<ellipse fill="none" stroke="black" cx="502" cy="-18" rx="27" ry="18"/>
<text text-anchor="middle" x="502" y="-14.3" font-family="Times,serif" font-size="14.00">36</text>
</g>
<!-- 1&#45;&gt;36 -->
<g id="edge54" class="edge">
<title>1&#45;&gt;36</title>
<path fill="none" stroke="black" d="M614.19,-451.73C803.56,-449.69 1918,-434.8 1918,-367 1918,-367 1918,-367 1918,-104 1918,-32.82 762.93,-20.88 539.25,-19.23"/>
<polygon fill="black" stroke="black" points="539.05,-15.73 529.02,-19.16 539,-22.73 539.05,-15.73"/>
<text text-anchor="middle" x="1932" y="-231.8" font-family="Times,serif" font-size="14.00">800</text>
</g>
<!-- 2 -->
<g id="node3" class="node">
<title>2</title>
<ellipse fill="none" stroke="black" cx="200" cy="-279" rx="27" ry="18"/>
<text text-anchor="middle" x="200" y="-275.3" font-family="Times,serif" font-size="14.00">2</text>
</g>
<!-- 2&#45;&gt;15 -->
<g id="edge2" class="edge">
<title>2&#45;&gt;15</title>
<path fill="none" stroke="black" d="M178.04,-268.28C166.1,-262.23 151.64,-253.58 141,-243 134.01,-236.05 128,-227.15 123.23,-218.8"/>
<polygon fill="black" stroke="black" points="126.19,-216.9 118.39,-209.72 120.01,-220.19 126.19,-216.9"/>
<text text-anchor="middle" x="155" y="-231.8" font-family="Times,serif" font-size="14.00">200</text>
</g>
<!-- 17 -->
<g id="node13" class="node">
<title>17</title>
<ellipse fill="none" stroke="black" cx="247" cy="-192" rx="27" ry="18"/>
<text text-anchor="middle" x="247" y="-188.3" font-family="Times,serif" font-size="14.00">17</text>
</g>
<!-- 2&#45;&gt;17 -->
<g id="edge9" class="edge">
<title>2&#45;&gt;17</title>
<path fill="none" stroke="black" d="M204.01,-261.11C206.8,-251.09 211.1,-238.35 217,-228 219.49,-223.62 222.58,-219.28 225.8,-215.23"/>
<polygon fill="black" stroke="black" points="228.67,-217.26 232.5,-207.38 223.35,-212.72 228.67,-217.26"/>
<text text-anchor="middle" x="231" y="-231.8" font-family="Times,serif" font-size="14.00">500</text>
</g>
<!-- 29 -->
<g id="node24" class="node">
<title>29</title>
<ellipse fill="none" stroke="black" cx="502" cy="-192" rx="27" ry="18"/>
<text text-anchor="middle" x="502" y="-188.3" font-family="Times,serif" font-size="14.00">29</text>
</g>
<!-- 2&#45;&gt;29 -->
<g id="edge25" class="edge">
<title>2&#45;&gt;29</title>
<path fill="none" stroke="black" d="M225.85,-272.93C244.04,-269.43 268.97,-264.74 291,-261 343.3,-252.13 359.85,-262.96 409,-243 419.63,-238.68 420.14,-233.86 430,-228 434.02,-225.61 453.7,-216.07 471.47,-207.55"/>
<polygon fill="black" stroke="black" points="472.99,-210.7 480.5,-203.23 469.97,-204.39 472.99,-210.7"/>
<text text-anchor="middle" x="444" y="-231.8" font-family="Times,serif" font-size="14.00">900</text>
</g>
<!-- 2&#45;&gt;32 -->
<g id="edge40" class="edge">
<title>2&#45;&gt;32</title>
<path fill="none" stroke="black" d="M191.21,-261.97C180.7,-240.42 166.46,-201.62 183,-174 202.74,-141.04 244.53,-123.15 274.79,-114.11"/>
<polygon fill="black" stroke="black" points="275.87,-117.44 284.56,-111.38 273.99,-110.7 275.87,-117.44"/>
<text text-anchor="middle" x="197" y="-188.3" font-family="Times,serif" font-size="14.00">900</text>
</g>
<!-- 4 -->
<g id="node4" class="node">
<title>4</title>
<ellipse fill="none" stroke="black" cx="779" cy="-366" rx="27" ry="18"/>
<text text-anchor="middle" x="779" y="-362.3" font-family="Times,serif" font-size="14.00">4</text>
</g>
<!-- 13 -->
<g id="node5" class="node">
<title>13</title>
<ellipse fill="none" stroke="black" cx="1422" cy="-279" rx="27" ry="18"/>
<text text-anchor="middle" x="1422" y="-275.3" font-family="Times,serif" font-size="14.00">13</text>
</g>
<!-- 4&#45;&gt;13 -->
<g id="edge3" class="edge">
<title>4&#45;&gt;13</title>
<path fill="none" stroke="black" d="M801.56,-355.66C809.75,-352.68 819.16,-349.71 828,-348 988.32,-316.92 1032.68,-347.94 1195,-330 1237.81,-325.27 1344.93,-309.98 1386,-297 1387.93,-296.39 1389.88,-295.7 1391.84,-294.95"/>
<polygon fill="black" stroke="black" points="1393.61,-298 1401.45,-290.87 1390.87,-291.56 1393.61,-298"/>
<text text-anchor="middle" x="1318.5" y="-318.8" font-family="Times,serif" font-size="14.00">1000</text>
</g>
<!-- 4&#45;&gt;33 -->
<g id="edge41" class="edge">
<title>4&#45;&gt;33</title>
<path fill="none" stroke="black" d="M759.07,-353.75C747.51,-347.09 732.76,-338.34 720,-330 698.94,-316.24 693.4,-313.02 674,-297 656.06,-282.19 655.81,-273.2 636,-261 615.89,-248.62 599.58,-262.32 586,-243 561.52,-208.17 627.8,-230.75 643,-210 659.6,-187.34 651.13,-154.25 641.76,-131.52"/>
<polygon fill="black" stroke="black" points="644.87,-129.89 637.62,-122.17 638.47,-132.73 644.87,-129.89"/>
<text text-anchor="middle" x="600" y="-231.8" font-family="Times,serif" font-size="14.00">500</text>
</g>
<!-- 13&#45;&gt;34 -->
<g id="edge59" class="edge">
<title>13&#45;&gt;34</title>
<path fill="none" stroke="black" d="M1443.73,-268C1457.15,-261.5 1474.51,-252.49 1489,-243 1502.4,-234.22 1516.37,-223.14 1527.65,-213.65"/>
<polygon fill="black" stroke="black" points="1530.02,-216.23 1535.35,-207.07 1525.47,-210.91 1530.02,-216.23"/>
<text text-anchor="middle" x="1522" y="-231.8" font-family="Times,serif" font-size="14.00">300</text>
</g>
<!-- 35 -->
<g id="node35" class="node">
<title>35</title>
<ellipse fill="none" stroke="black" cx="1646" cy="-192" rx="27" ry="18"/>
<text text-anchor="middle" x="1646" y="-188.3" font-family="Times,serif" font-size="14.00">35</text>
</g>
<!-- 13&#45;&gt;35 -->
<g id="edge60" class="edge">
<title>13&#45;&gt;35</title>
<path fill="none" stroke="black" d="M1442.61,-267.3C1447.56,-265 1452.9,-262.74 1458,-261 1493.32,-248.96 1504.68,-255.03 1540,-243 1566.89,-233.84 1595.98,-219.8 1616.87,-208.92"/>
<polygon fill="black" stroke="black" points="1618.64,-211.95 1625.85,-204.18 1615.38,-205.75 1618.64,-211.95"/>
<text text-anchor="middle" x="1589" y="-231.8" font-family="Times,serif" font-size="14.00">500</text>
</g>
<!-- 5 -->
<g id="node6" class="node">
<title>5</title>
<ellipse fill="none" stroke="black" cx="691" cy="-366" rx="27" ry="18"/>
<text text-anchor="middle" x="691" y="-362.3" font-family="Times,serif" font-size="14.00">5</text>
</g>
<!-- 12 -->
<g id="node7" class="node">
<title>12</title>
<ellipse fill="none" stroke="black" cx="1278" cy="-279" rx="27" ry="18"/>
<text text-anchor="middle" x="1278" y="-275.3" font-family="Times,serif" font-size="14.00">12</text>
</g>
<!-- 5&#45;&gt;12 -->
<g id="edge4" class="edge">
<title>5&#45;&gt;12</title>
<path fill="none" stroke="black" d="M714.01,-356.33C722.95,-353.27 733.34,-350.08 743,-348 949.72,-303.57 1008.27,-336.42 1216,-297 1225.24,-295.25 1235.12,-292.8 1244.21,-290.32"/>
<polygon fill="black" stroke="black" points="1245.4,-293.62 1254.07,-287.53 1243.49,-286.88 1245.4,-293.62"/>
<text text-anchor="middle" x="1092" y="-318.8" font-family="Times,serif" font-size="14.00">100</text>
</g>
<!-- 16 -->
<g id="node14" class="node">
<title>16</title>
<ellipse fill="none" stroke="black" cx="600" cy="-279" rx="27" ry="18"/>
<text text-anchor="middle" x="600" y="-275.3" font-family="Times,serif" font-size="14.00">16</text>
</g>
<!-- 5&#45;&gt;16 -->
<g id="edge10" class="edge">
<title>5&#45;&gt;16</title>
<path fill="none" stroke="black" d="M665.36,-359.62C648.17,-354.72 626.32,-345.76 613,-330 607.69,-323.71 604.51,-315.51 602.63,-307.57"/>
<polygon fill="black" stroke="black" points="606.02,-306.69 600.82,-297.46 599.13,-307.92 606.02,-306.69"/>
<text text-anchor="middle" x="627" y="-318.8" font-family="Times,serif" font-size="14.00">100</text>
</g>
<!-- 27 -->
<g id="node23" class="node">
<title>27</title>
<ellipse fill="none" stroke="black" cx="949" cy="-192" rx="27" ry="18"/>
<text text-anchor="middle" x="949" y="-188.3" font-family="Times,serif" font-size="14.00">27</text>
</g>
<!-- 12&#45;&gt;27 -->
<g id="edge30" class="edge">
<title>12&#45;&gt;27</title>
<path fill="none" stroke="black" d="M1253.58,-271.23C1242.17,-268.08 1228.4,-264.32 1216,-261 1185.38,-252.81 1176.74,-253.95 1147,-243 1132.64,-237.71 1130.64,-232.47 1116,-228 1061.9,-211.48 1044.56,-224.95 990,-210 986.63,-209.08 983.16,-207.95 979.74,-206.71"/>
<polygon fill="black" stroke="black" points="980.94,-203.42 970.35,-203.04 978.39,-209.94 980.94,-203.42"/>
<text text-anchor="middle" x="1161" y="-231.8" font-family="Times,serif" font-size="14.00">700</text>
</g>
<!-- 12&#45;&gt;33 -->
<g id="edge45" class="edge">
<title>12&#45;&gt;33</title>
<path fill="none" stroke="black" d="M1282.76,-261.12C1284.69,-250.34 1284.9,-236.77 1277,-228 1255.42,-204.04 1164.21,-218.11 1133,-210 1091.7,-199.26 1085.08,-185.52 1044,-174 907.31,-135.67 738.86,-116.34 665.74,-109.26"/>
<polygon fill="black" stroke="black" points="665.95,-105.76 655.66,-108.3 665.29,-112.73 665.95,-105.76"/>
<text text-anchor="middle" x="1147" y="-188.3" font-family="Times,serif" font-size="14.00">400</text>
</g>
<!-- 12&#45;&gt;34 -->
<g id="edge58" class="edge">
<title>12&#45;&gt;34</title>
<path fill="none" stroke="black" d="M1298.59,-267.23C1303.54,-264.93 1308.88,-262.69 1314,-261 1352.73,-248.2 1364.61,-253.6 1404,-243 1423.95,-237.63 1428.3,-234.22 1448,-228 1475.36,-219.37 1482.93,-219.51 1510,-210 1513.13,-208.9 1516.36,-207.69 1519.57,-206.44"/>
<polygon fill="black" stroke="black" points="1521.08,-209.61 1529.04,-202.63 1518.46,-203.12 1521.08,-209.61"/>
<text text-anchor="middle" x="1466.5" y="-231.8" font-family="Times,serif" font-size="14.00">1000</text>
</g>
<!-- 10 -->
<g id="node8" class="node">
<title>10</title>
<ellipse fill="none" stroke="black" cx="1472" cy="-366" rx="27" ry="18"/>
<text text-anchor="middle" x="1472" y="-362.3" font-family="Times,serif" font-size="14.00">10</text>
</g>
<!-- 10&#45;&gt;12 -->
<g id="edge5" class="edge">
<title>10&#45;&gt;12</title>
<path fill="none" stroke="black" d="M1449.65,-355.67C1418.95,-342.79 1362.05,-318.68 1314,-297 1312.2,-296.19 1310.36,-295.35 1308.51,-294.5"/>
<polygon fill="black" stroke="black" points="1309.81,-291.24 1299.26,-290.19 1306.85,-297.59 1309.81,-291.24"/>
<text text-anchor="middle" x="1401" y="-318.8" font-family="Times,serif" font-size="14.00">400</text>
</g>
<!-- 14 -->
<g id="node9" class="node">
<title>14</title>
<ellipse fill="none" stroke="black" cx="1095" cy="-279" rx="27" ry="18"/>
<text text-anchor="middle" x="1095" y="-275.3" font-family="Times,serif" font-size="14.00">14</text>
</g>
<!-- 10&#45;&gt;14 -->
<g id="edge6" class="edge">
<title>10&#45;&gt;14</title>
<path fill="none" stroke="black" d="M1445.18,-363.6C1380.54,-359.97 1217.74,-349.14 1167,-330 1149.08,-323.24 1131.37,-311.04 1118,-300.38"/>
<polygon fill="black" stroke="black" points="1120.22,-297.67 1110.28,-294.01 1115.76,-303.07 1120.22,-297.67"/>
<text text-anchor="middle" x="1181" y="-318.8" font-family="Times,serif" font-size="14.00">500</text>
</g>
<!-- 18 -->
<g id="node16" class="node">
<title>18</title>
<ellipse fill="none" stroke="black" cx="1791" cy="-279" rx="27" ry="18"/>
<text text-anchor="middle" x="1791" y="-275.3" font-family="Times,serif" font-size="14.00">18</text>
</g>
<!-- 10&#45;&gt;18 -->
<g id="edge13" class="edge">
<title>10&#45;&gt;18</title>
<path fill="none" stroke="black" d="M1483.38,-349.54C1492.86,-337.94 1507.45,-322.76 1524,-315 1589.19,-284.43 1613.66,-306.7 1685,-297 1708.28,-293.83 1734.32,-289.67 1754.77,-286.25"/>
<polygon fill="black" stroke="black" points="1755.64,-289.65 1764.91,-284.54 1754.47,-282.75 1755.64,-289.65"/>
<text text-anchor="middle" x="1538" y="-318.8" font-family="Times,serif" font-size="14.00">500</text>
</g>
<!-- 22 -->
<g id="node21" class="node">
<title>22</title>
<ellipse fill="none" stroke="black" cx="1478" cy="-105" rx="27" ry="18"/>
<text text-anchor="middle" x="1478" y="-101.3" font-family="Times,serif" font-size="14.00">22</text>
</g>
<!-- 10&#45;&gt;22 -->
<g id="edge18" class="edge">
<title>10&#45;&gt;22</title>
<path fill="none" stroke="black" d="M1494.29,-355.81C1510.46,-349.01 1532.77,-339.34 1552,-330 1564.7,-323.83 1566.44,-318.93 1580,-315 1606.43,-307.34 1806.82,-315.71 1827,-297 1867.31,-259.63 1872.7,-218.19 1840,-174 1801.7,-122.24 1599.63,-109.84 1515.17,-106.9"/>
<polygon fill="black" stroke="black" points="1515.1,-103.39 1504.99,-106.57 1514.88,-110.39 1515.1,-103.39"/>
<text text-anchor="middle" x="1875" y="-231.8" font-family="Times,serif" font-size="14.00">800</text>
</g>
<!-- 31 -->
<g id="node32" class="node">
<title>31</title>
<ellipse fill="none" stroke="black" cx="1494" cy="-279" rx="27" ry="18"/>
<text text-anchor="middle" x="1494" y="-275.3" font-family="Times,serif" font-size="14.00">31</text>
</g>
<!-- 10&#45;&gt;31 -->
<g id="edge44" class="edge">
<title>10&#45;&gt;31</title>
<path fill="none" stroke="black" d="M1470.19,-348.01C1469.68,-338.18 1469.93,-325.68 1473,-315 1474.04,-311.38 1475.55,-307.76 1477.3,-304.29"/>
<polygon fill="black" stroke="black" points="1480.36,-305.98 1482.29,-295.56 1474.29,-302.5 1480.36,-305.98"/>
<text text-anchor="middle" x="1487" y="-318.8" font-family="Times,serif" font-size="14.00">800</text>
</g>
<!-- 14&#45;&gt;27 -->
<g id="edge32" class="edge">
<title>14&#45;&gt;27</title>
<path fill="none" stroke="black" d="M1091.61,-260.72C1088.57,-249.76 1082.99,-236.16 1073,-228 1043.77,-204.12 1026.02,-221.27 990,-210 986.84,-209.01 983.58,-207.87 980.35,-206.67"/>
<polygon fill="black" stroke="black" points="981.45,-203.34 970.86,-202.91 978.87,-209.85 981.45,-203.34"/>
<text text-anchor="middle" x="1098" y="-231.8" font-family="Times,serif" font-size="14.00">100</text>
</g>
<!-- 26 -->
<g id="node25" class="node">
<title>26</title>
<ellipse fill="none" stroke="black" cx="749" cy="-192" rx="27" ry="18"/>
<text text-anchor="middle" x="749" y="-188.3" font-family="Times,serif" font-size="14.00">26</text>
</g>
<!-- 14&#45;&gt;26 -->
<g id="edge31" class="edge">
<title>14&#45;&gt;26</title>
<path fill="none" stroke="black" d="M1067.97,-277.62C1023.71,-276.19 933.61,-269.89 863,-243 851.59,-238.66 850.93,-233.44 840,-228 818.85,-217.48 812.03,-218.53 790,-210 787.08,-208.87 784.05,-207.67 781.02,-206.45"/>
<polygon fill="black" stroke="black" points="782.06,-203.09 771.48,-202.55 779.41,-209.57 782.06,-203.09"/>
<text text-anchor="middle" x="877" y="-231.8" font-family="Times,serif" font-size="14.00">100</text>
</g>
<!-- 0 -->
<g id="node10" class="node">
<title>0</title>
<ellipse fill="none" stroke="black" cx="782" cy="-279" rx="27" ry="18"/>
<text text-anchor="middle" x="782" y="-275.3" font-family="Times,serif" font-size="14.00">0</text>
</g>
<!-- 19 -->
<g id="node11" class="node">
<title>19</title>
<ellipse fill="none" stroke="black" cx="574" cy="-192" rx="27" ry="18"/>
<text text-anchor="middle" x="574" y="-188.3" font-family="Times,serif" font-size="14.00">19</text>
</g>
<!-- 0&#45;&gt;19 -->
<g id="edge7" class="edge">
<title>0&#45;&gt;19</title>
<path fill="none" stroke="black" d="M763.3,-266.02C745.5,-255 717.71,-238.8 692,-228 665.06,-216.68 633.22,-207.47 609.42,-201.34"/>
<polygon fill="black" stroke="black" points="609.97,-197.87 599.42,-198.82 608.26,-204.66 609.97,-197.87"/>
<text text-anchor="middle" x="737" y="-231.8" font-family="Times,serif" font-size="14.00">900</text>
</g>
<!-- 0&#45;&gt;27 -->
<g id="edge24" class="edge">
<title>0&#45;&gt;27</title>
<path fill="none" stroke="black" d="M802.63,-267.35C807.58,-265.05 812.91,-262.77 818,-261 851.19,-249.43 863.96,-259.49 895,-243 902.22,-239.16 915.71,-226.67 927.41,-215.13"/>
<polygon fill="black" stroke="black" points="930.15,-217.33 934.75,-207.79 925.2,-212.39 930.15,-217.33"/>
<text text-anchor="middle" x="928" y="-231.8" font-family="Times,serif" font-size="14.00">200</text>
</g>
<!-- 30 -->
<g id="node29" class="node">
<title>30</title>
<ellipse fill="none" stroke="black" cx="882" cy="-105" rx="27" ry="18"/>
<text text-anchor="middle" x="882" y="-101.3" font-family="Times,serif" font-size="14.00">30</text>
</g>
<!-- 0&#45;&gt;30 -->
<g id="edge37" class="edge">
<title>0&#45;&gt;30</title>
<path fill="none" stroke="black" d="M782.94,-260.82C784.38,-250.18 787.83,-236.9 796,-228 811.41,-211.21 827.42,-225.62 844,-210 865.35,-189.88 874.75,-156.78 878.86,-133.34"/>
<polygon fill="black" stroke="black" points="882.34,-133.74 880.4,-123.32 875.42,-132.68 882.34,-133.74"/>
<text text-anchor="middle" x="882" y="-188.3" font-family="Times,serif" font-size="14.00">900</text>
</g>
<!-- 19&#45;&gt;22 -->
<g id="edge22" class="edge">
<title>19&#45;&gt;22</title>
<path fill="none" stroke="black" d="M593.45,-179.38C614.81,-167.29 650.55,-149.02 684,-141 757.96,-123.27 1293.49,-110.12 1440.66,-106.81"/>
<polygon fill="black" stroke="black" points="1441.05,-110.3 1450.97,-106.58 1440.89,-103.3 1441.05,-110.3"/>
<text text-anchor="middle" x="698" y="-144.8" font-family="Times,serif" font-size="14.00">500</text>
</g>
<!-- 19&#45;&gt;32 -->
<g id="edge46" class="edge">
<title>19&#45;&gt;32</title>
<path fill="none" stroke="black" d="M552.93,-180.33C548.09,-178.08 542.92,-175.84 538,-174 510.32,-163.66 502.36,-164.31 474,-156 428.7,-142.73 376.58,-126.71 343.49,-116.44"/>
<polygon fill="black" stroke="black" points="344.44,-113.07 333.85,-113.45 342.36,-119.76 344.44,-113.07"/>
<text text-anchor="middle" x="488" y="-144.8" font-family="Times,serif" font-size="14.00">300</text>
</g>
<!-- 19&#45;&gt;33 -->
<g id="edge47" class="edge">
<title>19&#45;&gt;33</title>
<path fill="none" stroke="black" d="M575.81,-173.74C577.5,-163.59 580.76,-150.85 587,-141 590.89,-134.86 596.22,-129.26 601.77,-124.43"/>
<polygon fill="black" stroke="black" points="604.28,-126.9 609.92,-117.93 599.92,-121.43 604.28,-126.9"/>
<text text-anchor="middle" x="601" y="-144.8" font-family="Times,serif" font-size="14.00">400</text>
</g>
<!-- 20&#45;&gt;24 -->
<g id="edge23" class="edge">
<title>20&#45;&gt;24</title>
<path fill="none" stroke="black" d="M612.03,-358.99C654.88,-348.4 744.74,-324.89 818,-297 819.84,-296.3 821.72,-295.54 823.6,-294.75"/>
<polygon fill="black" stroke="black" points="825.19,-297.88 832.92,-290.62 822.36,-291.48 825.19,-297.88"/>
<text text-anchor="middle" x="776" y="-318.8" font-family="Times,serif" font-size="14.00">600</text>
</g>
<!-- 20&#45;&gt;32 -->
<g id="edge48" class="edge">
<title>20&#45;&gt;32</title>
<path fill="none" stroke="black" d="M559.88,-365.42C490.66,-365.52 303.07,-359.53 164,-297 113.55,-274.32 91.58,-262.77 75,-210 70.21,-194.74 65.39,-186.79 75,-174 98.89,-142.21 213.57,-120.54 273.43,-111.2"/>
<polygon fill="black" stroke="black" points="274.23,-114.62 283.59,-109.65 273.18,-107.7 274.23,-114.62"/>
<text text-anchor="middle" x="103" y="-231.8" font-family="Times,serif" font-size="14.00">200</text>
</g>
<!-- 16&#45;&gt;22 -->
<g id="edge19" class="edge">
<title>16&#45;&gt;22</title>
<path fill="none" stroke="black" d="M624.47,-271.29C638.8,-267.64 657.3,-263.39 674,-261 708.16,-256.12 955.95,-263.09 984,-243 1010.9,-223.73 985.96,-194.42 1012,-174 1078.65,-121.73 1342.68,-109.52 1440.92,-106.77"/>
<polygon fill="black" stroke="black" points="1441.08,-110.27 1450.98,-106.51 1440.89,-103.27 1441.08,-110.27"/>
<text text-anchor="middle" x="1026" y="-188.3" font-family="Times,serif" font-size="14.00">600</text>
</g>
<!-- 16&#45;&gt;26 -->
<g id="edge33" class="edge">
<title>16&#45;&gt;26</title>
<path fill="none" stroke="black" d="M606.2,-261.37C611.09,-250.41 618.95,-236.55 630,-228 653.81,-209.59 687.08,-200.85 712.4,-196.71"/>
<polygon fill="black" stroke="black" points="712.97,-200.16 722.36,-195.25 711.96,-193.24 712.97,-200.16"/>
<text text-anchor="middle" x="644" y="-231.8" font-family="Times,serif" font-size="14.00">100</text>
</g>
<!-- 16&#45;&gt;36 -->
<g id="edge61" class="edge">
<title>16&#45;&gt;36</title>
<path fill="none" stroke="black" d="M578.68,-267.87C572.45,-265.26 565.56,-262.72 559,-261 526.52,-252.49 436.09,-262.83 409,-243 396,-233.49 398.84,-225.37 394,-210 384.7,-180.44 372.38,-169.73 384,-141 402.22,-95.94 445.95,-58.3 474.75,-37.23"/>
<polygon fill="black" stroke="black" points="477.05,-39.88 483.16,-31.23 472.99,-34.18 477.05,-39.88"/>
<text text-anchor="middle" x="402.5" y="-144.8" font-family="Times,serif" font-size="14.00">1000</text>
</g>
<!-- 9 -->
<g id="node15" class="node">
<title>9</title>
<ellipse fill="none" stroke="black" cx="327" cy="-279" rx="27" ry="18"/>
<text text-anchor="middle" x="327" y="-275.3" font-family="Times,serif" font-size="14.00">9</text>
</g>
<!-- 9&#45;&gt;19 -->
<g id="edge12" class="edge">
<title>9&#45;&gt;19</title>
<path fill="none" stroke="black" d="M352.89,-273.72C380.65,-268.58 425.63,-258.64 462,-243 473.56,-238.03 474.65,-233.43 486,-228 508.07,-217.45 515.35,-219.23 538,-210 539.82,-209.26 541.69,-208.47 543.56,-207.65"/>
<polygon fill="black" stroke="black" points="545.18,-210.76 552.85,-203.45 542.29,-204.38 545.18,-210.76"/>
<text text-anchor="middle" x="500" y="-231.8" font-family="Times,serif" font-size="14.00">400</text>
</g>
<!-- 9&#45;&gt;17 -->
<g id="edge11" class="edge">
<title>9&#45;&gt;17</title>
<path fill="none" stroke="black" d="M304.43,-268.84C292.3,-262.97 277.86,-254.32 268,-243 262.2,-236.34 257.83,-227.84 254.62,-219.75"/>
<polygon fill="black" stroke="black" points="257.89,-218.5 251.26,-210.23 251.29,-220.83 257.89,-218.5"/>
<text text-anchor="middle" x="282" y="-231.8" font-family="Times,serif" font-size="14.00">200</text>
</g>
<!-- 21 -->
<g id="node22" class="node">
<title>21</title>
<ellipse fill="none" stroke="black" cx="430" cy="-192" rx="27" ry="18"/>
<text text-anchor="middle" x="430" y="-188.3" font-family="Times,serif" font-size="14.00">21</text>
</g>
<!-- 9&#45;&gt;21 -->
<g id="edge17" class="edge">
<title>9&#45;&gt;21</title>
<path fill="none" stroke="black" d="M338.95,-262.47C347.47,-251.99 359.58,-238.26 372,-228 380.66,-220.85 390.93,-214.16 400.4,-208.59"/>
<polygon fill="black" stroke="black" points="402.2,-211.59 409.16,-203.61 398.74,-205.51 402.2,-211.59"/>
<text text-anchor="middle" x="390.5" y="-231.8" font-family="Times,serif" font-size="14.00">1000</text>
</g>
<!-- 9&#45;&gt;32 -->
<g id="edge43" class="edge">
<title>9&#45;&gt;32</title>
<path fill="none" stroke="black" d="M325.31,-260.88C322.35,-231 316.24,-169.11 312.7,-133.27"/>
<polygon fill="black" stroke="black" points="316.15,-132.66 311.69,-123.05 309.19,-133.35 316.15,-132.66"/>
<text text-anchor="middle" x="339.5" y="-188.3" font-family="Times,serif" font-size="14.00">1000</text>
</g>
<!-- 25 -->
<g id="node19" class="node">
<title>25</title>
<ellipse fill="none" stroke="black" cx="1744" cy="-192" rx="27" ry="18"/>
<text text-anchor="middle" x="1744" y="-188.3" font-family="Times,serif" font-size="14.00">25</text>
</g>
<!-- 18&#45;&gt;25 -->
<g id="edge21" class="edge">
<title>18&#45;&gt;25</title>
<path fill="none" stroke="black" d="M1784.69,-261.37C1780.68,-251.44 1775.1,-238.72 1769,-228 1766.84,-224.2 1764.36,-220.31 1761.82,-216.57"/>
<polygon fill="black" stroke="black" points="1764.55,-214.36 1755.91,-208.23 1758.83,-218.41 1764.55,-214.36"/>
<text text-anchor="middle" x="1790" y="-231.8" font-family="Times,serif" font-size="14.00">500</text>
</g>
<!-- 18&#45;&gt;22 -->
<g id="edge20" class="edge">
<title>18&#45;&gt;22</title>
<path fill="none" stroke="black" d="M1800.74,-261.83C1803.68,-256.09 1806.52,-249.45 1808,-243 1815.42,-210.75 1806.21,-194.21 1780,-174 1738.61,-142.08 1585.76,-119.41 1514.73,-110.36"/>
<polygon fill="black" stroke="black" points="1514.82,-106.84 1504.47,-109.07 1513.95,-113.79 1514.82,-106.84"/>
<text text-anchor="middle" x="1822" y="-188.3" font-family="Times,serif" font-size="14.00">500</text>
</g>
<!-- 24&#45;&gt;27 -->
<g id="edge35" class="edge">
<title>24&#45;&gt;27</title>
<path fill="none" stroke="black" d="M880.88,-275.52C902.23,-272.01 930.92,-263.52 946,-243 950.73,-236.57 952.45,-228.32 952.71,-220.39"/>
<polygon fill="black" stroke="black" points="956.21,-220.19 952.35,-210.32 949.21,-220.44 956.21,-220.19"/>
<text text-anchor="middle" x="966" y="-231.8" font-family="Times,serif" font-size="14.00">600</text>
</g>
<!-- 24&#45;&gt;26 -->
<g id="edge34" class="edge">
<title>24&#45;&gt;26</title>
<path fill="none" stroke="black" d="M837.13,-264.34C819.88,-250.38 792.92,-228.56 773.36,-212.72"/>
<polygon fill="black" stroke="black" points="775.46,-209.91 765.48,-206.34 771.05,-215.35 775.46,-209.91"/>
<text text-anchor="middle" x="822" y="-231.8" font-family="Times,serif" font-size="14.00">500</text>
</g>
<!-- 28 -->
<g id="node28" class="node">
<title>28</title>
<ellipse fill="none" stroke="black" cx="1197" cy="-192" rx="27" ry="18"/>
<text text-anchor="middle" x="1197" y="-188.3" font-family="Times,serif" font-size="14.00">28</text>
</g>
<!-- 24&#45;&gt;28 -->
<g id="edge36" class="edge">
<title>24&#45;&gt;28</title>
<path fill="none" stroke="black" d="M880.75,-275.81C955.72,-269.59 1163.16,-251.68 1175,-243 1182.67,-237.38 1187.71,-228.49 1191,-219.76"/>
<polygon fill="black" stroke="black" points="1194.36,-220.73 1194.01,-210.15 1187.68,-218.64 1194.36,-220.73"/>
<text text-anchor="middle" x="1201" y="-231.8" font-family="Times,serif" font-size="14.00">900</text>
</g>
<!-- 3 -->
<g id="node18" class="node">
<title>3</title>
<ellipse fill="none" stroke="black" cx="1649" cy="-279" rx="27" ry="18"/>
<text text-anchor="middle" x="1649" y="-275.3" font-family="Times,serif" font-size="14.00">3</text>
</g>
<!-- 3&#45;&gt;25 -->
<g id="edge15" class="edge">
<title>3&#45;&gt;25</title>
<path fill="none" stroke="black" d="M1668.72,-266.1C1678.55,-259.77 1690.36,-251.55 1700,-243 1709.14,-234.9 1718.23,-224.96 1725.76,-216.09"/>
<polygon fill="black" stroke="black" points="1728.5,-218.26 1732.18,-208.33 1723.11,-213.8 1728.5,-218.26"/>
<text text-anchor="middle" x="1728" y="-231.8" font-family="Times,serif" font-size="14.00">300</text>
</g>
<!-- 3&#45;&gt;26 -->
<g id="edge26" class="edge">
<title>3&#45;&gt;26</title>
<path fill="none" stroke="black" d="M1623.07,-273.74C1599.01,-269.92 1562.17,-264.41 1530,-261 1414.81,-248.8 1384.01,-263.46 1270,-243 1246.74,-238.83 1242.31,-231.86 1219,-228 1030.73,-196.84 976.34,-251.18 790,-210 786.59,-209.25 783.09,-208.22 779.66,-207.05"/>
<polygon fill="black" stroke="black" points="780.83,-203.76 770.24,-203.46 778.34,-210.3 780.83,-203.76"/>
<text text-anchor="middle" x="1284" y="-231.8" font-family="Times,serif" font-size="14.00">300</text>
</g>
<!-- 3&#45;&gt;34 -->
<g id="edge55" class="edge">
<title>3&#45;&gt;34</title>
<path fill="none" stroke="black" d="M1640.93,-261.63C1635.1,-251.06 1626.44,-237.54 1616,-228 1606.39,-219.22 1594.18,-211.89 1582.94,-206.25"/>
<polygon fill="black" stroke="black" points="1584.34,-203.04 1573.8,-201.92 1581.34,-209.37 1584.34,-203.04"/>
<text text-anchor="middle" x="1642" y="-231.8" font-family="Times,serif" font-size="14.00">900</text>
</g>
<!-- 3&#45;&gt;35 -->
<g id="edge56" class="edge">
<title>3&#45;&gt;35</title>
<path fill="none" stroke="black" d="M1659.87,-262.43C1665.36,-252.66 1670.25,-239.74 1667,-228 1666,-224.37 1664.5,-220.74 1662.77,-217.27"/>
<polygon fill="black" stroke="black" points="1665.78,-215.49 1657.78,-208.54 1659.71,-218.96 1665.78,-215.49"/>
<text text-anchor="middle" x="1682" y="-231.8" font-family="Times,serif" font-size="14.00">900</text>
</g>
<!-- 8 -->
<g id="node20" class="node">
<title>8</title>
<ellipse fill="none" stroke="black" cx="1350" cy="-279" rx="27" ry="18"/>
<text text-anchor="middle" x="1350" y="-275.3" font-family="Times,serif" font-size="14.00">8</text>
</g>
<!-- 8&#45;&gt;22 -->
<g id="edge16" class="edge">
<title>8&#45;&gt;22</title>
<path fill="none" stroke="black" d="M1370.62,-267.34C1375.58,-265.04 1380.91,-262.77 1386,-261 1419.61,-249.34 1440.46,-269.68 1464,-243 1490.46,-213.01 1488.32,-163.72 1483.65,-133.15"/>
<polygon fill="black" stroke="black" points="1487.09,-132.45 1481.94,-123.19 1480.19,-133.63 1487.09,-132.45"/>
<text text-anchor="middle" x="1500" y="-188.3" font-family="Times,serif" font-size="14.00">700</text>
</g>
<!-- 8&#45;&gt;28 -->
<g id="edge29" class="edge">
<title>8&#45;&gt;28</title>
<path fill="none" stroke="black" d="M1338.51,-262.52C1329.63,-251.52 1316.44,-237.13 1302,-228 1280.78,-214.59 1253.88,-205.75 1232.62,-200.31"/>
<polygon fill="black" stroke="black" points="1233.23,-196.86 1222.68,-197.91 1231.58,-203.66 1233.23,-196.86"/>
<text text-anchor="middle" x="1333" y="-231.8" font-family="Times,serif" font-size="14.00">800</text>
</g>
<!-- 21&#45;&gt;33 -->
<g id="edge49" class="edge">
<title>21&#45;&gt;33</title>
<path fill="none" stroke="black" d="M451.28,-180.86C456.11,-178.58 461.23,-176.19 466,-174 498.73,-158.98 506.79,-154.93 540,-141 558.56,-133.22 579.5,-124.96 596.4,-118.42"/>
<polygon fill="black" stroke="black" points="597.76,-121.64 605.84,-114.78 595.25,-115.11 597.76,-121.64"/>
<text text-anchor="middle" x="558.5" y="-144.8" font-family="Times,serif" font-size="14.00">1000</text>
</g>
<!-- 26&#45;&gt;32 -->
<g id="edge50" class="edge">
<title>26&#45;&gt;32</title>
<path fill="none" stroke="black" d="M742.52,-174.09C737.21,-162.7 728.51,-148.45 716,-141 700.27,-131.64 444.55,-114.53 347.21,-108.33"/>
<polygon fill="black" stroke="black" points="347.16,-104.82 336.96,-107.68 346.71,-111.8 347.16,-104.82"/>
<text text-anchor="middle" x="746" y="-144.8" font-family="Times,serif" font-size="14.00">900</text>
</g>
<!-- 26&#45;&gt;33 -->
<g id="edge51" class="edge">
<title>26&#45;&gt;33</title>
<path fill="none" stroke="black" d="M761.62,-175.78C768.8,-165.19 774.93,-151.19 767,-141 754.67,-125.15 702.41,-115.32 665.87,-110.26"/>
<polygon fill="black" stroke="black" points="665.93,-106.73 655.56,-108.89 665.02,-113.67 665.93,-106.73"/>
<text text-anchor="middle" x="785" y="-144.8" font-family="Times,serif" font-size="14.00">300</text>
</g>
<!-- 6 -->
<g id="node26" class="node">
<title>6</title>
<ellipse fill="none" stroke="black" cx="1180" cy="-279" rx="27" ry="18"/>
<text text-anchor="middle" x="1180" y="-275.3" font-family="Times,serif" font-size="14.00">6</text>
</g>
<!-- 6&#45;&gt;29 -->
<g id="edge27" class="edge">
<title>6&#45;&gt;29</title>
<path fill="none" stroke="black" d="M1156.77,-269.21C1148.69,-266.35 1139.51,-263.32 1131,-261 1091.64,-250.29 1080.74,-252.19 1041,-243 1015.48,-237.1 1009.91,-231.88 984,-228 885.9,-213.29 634.33,-233.65 538,-210 535.82,-209.46 533.61,-208.79 531.42,-208.02"/>
<polygon fill="black" stroke="black" points="532.62,-204.73 522.04,-204.19 529.97,-211.21 532.62,-204.73"/>
<text text-anchor="middle" x="1055" y="-231.8" font-family="Times,serif" font-size="14.00">200</text>
</g>
<!-- 6&#45;&gt;34 -->
<g id="edge57" class="edge">
<title>6&#45;&gt;34</title>
<path fill="none" stroke="black" d="M1204.3,-270.71C1215.68,-267.46 1229.46,-263.75 1242,-261 1289.96,-250.49 1305.62,-261.76 1351,-243 1361.6,-238.62 1361.33,-232.2 1372,-228 1429.56,-205.35 1450.25,-225.98 1510,-210 1513.38,-209.1 1516.85,-207.98 1520.27,-206.75"/>
<polygon fill="black" stroke="black" points="1521.62,-209.98 1529.67,-203.09 1519.08,-203.46 1521.62,-209.98"/>
<text text-anchor="middle" x="1386" y="-231.8" font-family="Times,serif" font-size="14.00">100</text>
</g>
<!-- 7 -->
<g id="node27" class="node">
<title>7</title>
<ellipse fill="none" stroke="black" cx="710" cy="-279" rx="27" ry="18"/>
<text text-anchor="middle" x="710" y="-275.3" font-family="Times,serif" font-size="14.00">7</text>
</g>
<!-- 7&#45;&gt;26 -->
<g id="edge28" class="edge">
<title>7&#45;&gt;26</title>
<path fill="none" stroke="black" d="M688.78,-267.51C672.35,-257.93 653.96,-242.99 664,-228 674.84,-211.82 694.66,-203.11 712.44,-198.43"/>
<polygon fill="black" stroke="black" points="713.62,-201.75 722.59,-196.11 712.06,-194.92 713.62,-201.75"/>
<text text-anchor="middle" x="678" y="-231.8" font-family="Times,serif" font-size="14.00">400</text>
</g>
<!-- 7&#45;&gt;30 -->
<g id="edge42" class="edge">
<title>7&#45;&gt;30</title>
<path fill="none" stroke="black" d="M726.64,-264.51C742.42,-251.35 766.42,-230.4 785,-210 798.47,-195.22 798.79,-189.01 812,-174 826.73,-157.26 844.82,-139.76 858.92,-126.7"/>
<polygon fill="black" stroke="black" points="861.29,-129.28 866.29,-119.94 856.56,-124.12 861.29,-129.28"/>
<text text-anchor="middle" x="826" y="-188.3" font-family="Times,serif" font-size="14.00">500</text>
</g>
<!-- 28&#45;&gt;30 -->
<g id="edge52" class="edge">
<title>28&#45;&gt;30</title>
<path fill="none" stroke="black" d="M1172.63,-183.86C1162.01,-180.77 1149.4,-177.16 1138,-174 1058.97,-152.12 965.83,-127.73 916.58,-114.94"/>
<polygon fill="black" stroke="black" points="917.32,-111.52 906.76,-112.39 915.56,-118.29 917.32,-111.52"/>
<text text-anchor="middle" x="1081" y="-144.8" font-family="Times,serif" font-size="14.00">900</text>
</g>
<!-- 32&#45;&gt;36 -->
<g id="edge62" class="edge">
<title>32&#45;&gt;36</title>
<path fill="none" stroke="black" d="M313.58,-87.16C316.8,-76.1 322.68,-62.21 333,-54 353.04,-38.06 421.65,-27.8 465.04,-22.75"/>
<polygon fill="black" stroke="black" points="465.67,-26.2 475.22,-21.6 464.89,-19.24 465.67,-26.2"/>
<text text-anchor="middle" x="347" y="-57.8" font-family="Times,serif" font-size="14.00">200</text>
</g>
<!-- 33&#45;&gt;36 -->
<g id="edge63" class="edge">
<title>33&#45;&gt;36</title>
<path fill="none" stroke="black" d="M610.53,-91.64C589.09,-77.29 553.53,-53.49 528.99,-37.06"/>
<polygon fill="black" stroke="black" points="530.75,-34.03 520.49,-31.37 526.85,-39.85 530.75,-34.03"/>
<text text-anchor="middle" x="588" y="-57.8" font-family="Times,serif" font-size="14.00">300</text>
</g>
</g>
</svg>
